<?xml version="1.0" encoding="UTF-8" standalone="no"?>
<svg
   width="512"
   height="512"
   viewBox="0 0 512 512"
   style="background-color:#000"
   version="1.1"
   id="svg2"
   sodipodi:docname="lock.svg"
   inkscape:version="1.3.2 (091e20ef0f, 2023-11-25, custom)"
   xmlns:inkscape="http://www.inkscape.org/namespaces/inkscape"
   xmlns:sodipodi="http://sodipodi.sourceforge.net/DTD/sodipodi-0.dtd"
   xmlns="http://www.w3.org/2000/svg"
   xmlns:svg="http://www.w3.org/2000/svg">
  <defs
     id="defs2" />
  <sodipodi:namedview
     id="namedview2"
     pagecolor="#ffffff"
     bordercolor="#000000"
     borderopacity="0.25"
     inkscape:showpageshadow="2"
     inkscape:pageopacity="0.0"
     inkscape:pagecheckerboard="0"
     inkscape:deskcolor="#d1d1d1"
     inkscape:zoom="2.671875"
     inkscape:cx="131.36842"
     inkscape:cy="282.38597"
     inkscape:window-width="2951"
     inkscape:window-height="1629"
     inkscape:window-x="0"
     inkscape:window-y="0"
     inkscape:window-maximized="0"
     inkscape:current-layer="svg2"
     inkscape:export-bgcolor="#000000ff" />
  <path
     stroke="#176c97"
     stroke-width="16"
     d="m 200.43701,245.32887 c 0.73244,-31.87997 1.46489,-63.75994 18.12649,-79.66592 16.6616,-15.90598 49.25107,-15.83798 65.62677,0.12295 16.37569,15.96093 16.53697,47.81351 16.69825,79.66672"
     transform="matrix(1.2024316,0,0,1.1832678,-45.406042,-47.506186)"
     id="path1"
     style="stroke-width:25.15066897;stroke-dasharray:none" />
  <path
     id="path2"
     d="M 189.46606 241.19433 L 120.02426 241.3102 A 9.163666 9.163666 0 0 0 119.9742 241.32199 L 119.24959 241.32199 A 6.2183838 7.6613492 47.983685 0 0 110.90303 248.22504 L 80.437678 393.955 A 7.4315958 9.1560851 47.983685 0 0 80.492407 394.87017 L 80.153539 396.48645 A 4.7452738 4.7452738 45 0 0 84.798151 402.20331 L 86.962214 402.20331 L 153.45245 402.20331 L 272.62823 402.20331 L 276.09503 402.20331 L 339.11846 402.20331 L 341.28253 402.20331 A 4.2751111 5.2671434 47.983685 0 0 347.12229 396.48645 L 347.12249 395.83051 A 8.2488983 8.2488983 0 0 0 347.36737 393.955 L 347.36592 248.22504 A 6.9022612 6.9022612 35.008447 0 0 340.46444 241.32199 L 339.73788 241.32199 A 8.2557281 10.171456 47.983685 0 0 339.69028 241.3102 L 270.27466 241.19433 L 229.86523 241.24343 L 189.46606 241.19433 z "
     transform="matrix(1,0,0.10452846,0.9945219,0,0)"
     style="fill:#176c97;fill-opacity:1;stroke:none;stroke-opacity:1" />
</svg>
